<svg width="316" height="304" viewBox="0 0 316 304" fill="none" xmlns="http://www.w3.org/2000/svg">
<path d="M273.962 49.7332L272.484 47.2705C260.027 26.5267 237.506 14.0205 213.765 15.5266C210.717 15.724 207.687 16.1462 204.698 16.7901C183.112 21.4585 164.33 37.9622 156.574 59.0914C151.999 71.5192 150.716 85.8242 142.025 95.6893C130.72 108.538 111.519 108.931 94.6404 108.403C77.762 107.874 58.5472 108.324 47.2904 121.209C40.2391 129.282 38.0003 140.76 38.5722 151.568C40.0787 180.185 59.8096 205.776 84.904 218.496C109.998 231.216 139.542 232.358 167.008 226.762C205.479 218.91 242.068 197.395 264.058 164.152C286.049 130.909 291.587 85.6172 273.962 49.7332Z" fill="#EBEBEB"/>
<path d="M308.089 298.451C308.089 298.558 241.05 298.637 158.381 298.637C75.7116 298.637 8.65857 298.558 8.65857 298.451C8.65857 298.344 75.6837 298.266 158.381 298.266C241.077 298.266 308.089 298.351 308.089 298.451Z" fill="#263238"/>
<path d="M88.0775 36.4785C91.3666 40.5981 93.1475 45.7635 93.1131 51.0834C93.0782 54.0957 92.5342 57.415 94.2499 59.8635C95.5472 61.7194 97.9185 62.6545 98.9717 64.6675C100.241 67.0874 99.16 70.1497 99.9412 72.7766C101.043 76.5027 105.312 78.066 107.843 80.9713C108.922 82.256 109.678 83.7919 110.042 85.4446C110.407 87.0972 110.37 88.8161 109.936 90.4509C109.474 92.0789 108.64 93.5707 107.502 94.8023C106.365 96.0339 104.956 96.9697 103.394 97.5321C101.725 98.2051 99.8645 98.1743 98.2184 97.4464C96.5097 96.5755 95.4286 94.7838 94.5917 93.035C92.9108 89.5943 78.1458 70.9991 77.3088 67.2444" fill="#263238"/>
<path d="M77.3367 32.0955C71.2968 31.0962 65.48 35.2007 62.9483 40.897C60.4165 46.5934 60.3328 53.0321 60.1584 59.3137C59.9841 65.5954 59.5377 72.1055 56.4201 77.4878C54.4393 80.907 51.3705 83.9122 50.8893 87.8454C50.4569 91.3717 52.2424 94.9265 51.6495 98.4314C51.1334 101.487 48.8597 104.142 48.9504 107.233C49.062 110.959 52.8073 113.764 56.441 113.864C60.0747 113.964 63.4783 112.016 66.3309 109.703C70.9785 105.926 74.6975 101.088 77.1902 95.5761" fill="#263238"/>
<path d="M67.3982 46.8285C67.2084 45.2736 67.3259 43.6954 67.7435 42.1877C68.1611 40.6801 68.8704 39.2737 69.8292 38.0519C70.7881 36.8302 71.977 35.8181 73.3254 35.0756C74.6737 34.3332 76.1541 33.8755 77.6786 33.7298C83.7674 33.1302 89.1866 37.7772 90.1002 43.9732C90.9023 49.4055 91.5858 54.8876 91.5649 56.8792C91.4882 62.8825 88.0776 65.2167 86.6827 65.9234C86.181 66.1077 85.6622 66.2393 85.1344 66.316V66.3588L86.4316 73.2544C87.0245 77.7729 84.5625 81.8203 80.1546 82.4556C75.7467 83.0909 72.2803 79.6431 71.6038 75.1246L67.3982 46.8285Z" fill="#FFBE9D"/>
<path d="M88.9004 46.6003C88.8027 46.7431 88.0285 46.3219 87.0382 46.4718C86.0478 46.6217 85.3852 47.2356 85.2597 47.1285C85.1341 47.0215 85.2597 46.843 85.5665 46.5575C85.9479 46.1772 86.4354 45.9278 86.9614 45.8436C87.4775 45.7622 88.0056 45.8523 88.4679 46.1006C88.8167 46.3291 88.9492 46.5432 88.9004 46.6003Z" fill="#263238"/>
<path d="M80.0708 48.7997C79.9731 48.9425 79.199 48.5142 78.2016 48.6641C77.2042 48.814 76.5556 49.435 76.4301 49.328C76.3045 49.2209 76.4301 49.0353 76.7369 48.7569C77.1183 48.3767 77.6058 48.1272 78.1318 48.0431C78.6486 47.9678 79.1755 48.0602 79.6383 48.3072C79.9801 48.5285 80.1196 48.7355 80.0708 48.7997Z" fill="#263238"/>
<path d="M83.6905 54.245C84.1894 53.9993 84.7167 53.8194 85.2598 53.7096C85.5109 53.6453 85.741 53.5597 85.7619 53.3741C85.7394 53.1133 85.6423 52.865 85.483 52.6603L84.4438 50.7615C83 48.106 81.919 45.9075 82.0236 45.8432C82.1282 45.779 83.4185 47.899 84.8134 50.5545C85.1691 51.2112 85.5109 51.8394 85.8177 52.4318C86.0204 52.7221 86.1189 53.0751 86.0967 53.4312C86.0737 53.5286 86.029 53.6192 85.9661 53.696C85.9032 53.7728 85.8238 53.8336 85.734 53.8738C85.5981 53.9347 85.4551 53.9778 85.3086 54.0023C84.7819 54.155 84.2379 54.2366 83.6905 54.245Z" fill="#263238"/>
<path d="M85.0783 66.3225C85.0783 66.3225 81.2912 67.2147 76.0742 64.9805C76.0742 64.9805 78.327 69.9416 85.434 68.1784L85.0783 66.3225Z" fill="#EB996E"/>
<path d="M79.5613 46.136C79.5055 46.4287 78.4942 46.443 77.3504 46.7642C76.2066 47.0854 75.3069 47.5422 75.1186 47.321C75.0349 47.2139 75.1604 46.9284 75.5021 46.6071C75.9623 46.2043 76.5061 45.914 77.0921 45.7581C77.6782 45.6023 78.2912 45.5851 78.8848 45.7077C79.3451 45.8148 79.5613 46.0004 79.5613 46.136Z" fill="#263238"/>
<path d="M88.0843 44.3514C87.9448 44.6084 87.2265 44.4728 86.4035 44.5799C85.5805 44.6869 84.9039 44.9653 84.7087 44.7441C84.625 44.637 84.7087 44.3943 84.9737 44.1302C85.3394 43.7983 85.7984 43.5934 86.2849 43.5448C86.7653 43.4856 87.2519 43.5777 87.6798 43.8089C88.0146 44.0017 88.1471 44.223 88.0843 44.3514Z" fill="#263238"/>
<path d="M77.9153 50.1122C77.9306 50.2227 77.9672 50.3289 78.023 50.4248C78.0788 50.5206 78.1526 50.6042 78.2402 50.6706C78.3278 50.737 78.4275 50.785 78.5333 50.8116C78.6392 50.8383 78.7491 50.8432 78.8569 50.826C78.9616 50.8137 79.0629 50.7802 79.1548 50.7274C79.2468 50.6746 79.3275 50.6036 79.3924 50.5186C79.4574 50.4336 79.5051 50.3362 79.5329 50.2321C79.5607 50.128 79.5679 50.0193 79.5543 49.9123C79.5216 49.6901 79.4041 49.4901 79.2276 49.3563C79.0511 49.2225 78.83 49.1658 78.6127 49.1985C78.5076 49.2099 78.4058 49.2428 78.3134 49.2953C78.221 49.3478 78.1398 49.4188 78.0748 49.504C78.0097 49.5893 77.9621 49.6871 77.9347 49.7915C77.9073 49.896 77.9007 50.0051 77.9153 50.1122Z" fill="#263238"/>
<path d="M86.7101 48.163C86.7428 48.3853 86.8603 48.5852 87.0368 48.719C87.2133 48.8528 87.4344 48.9095 87.6517 48.8768C87.7564 48.8645 87.8577 48.8309 87.9496 48.7782C88.0416 48.7254 88.1223 48.6544 88.1872 48.5694C88.2521 48.4844 88.2999 48.387 88.3277 48.2829C88.3554 48.1788 88.3627 48.0701 88.3491 47.9631C88.3164 47.7408 88.1989 47.5409 88.0224 47.4071C87.8459 47.2733 87.6248 47.2166 87.4075 47.2493C87.3024 47.2607 87.2006 47.2936 87.1082 47.3461C87.0158 47.3986 86.9346 47.4696 86.8696 47.5548C86.8045 47.6401 86.7569 47.7378 86.7295 47.8423C86.7021 47.9468 86.6955 48.0559 86.7101 48.163Z" fill="#263238"/>
<path d="M85.2527 56.2149C84.9789 56.1277 84.684 56.1414 84.419 56.2535C84.154 56.3657 83.9357 56.5692 83.802 56.8288C83.6743 57.0672 83.6225 57.3405 83.6538 57.6105C83.685 57.8805 83.7978 58.1337 83.9764 58.335C84.1665 58.5261 84.4168 58.6418 84.6825 58.6614C84.9483 58.681 85.2122 58.6033 85.4271 58.4421C85.6961 58.1914 85.8588 57.843 85.8804 57.4713C85.9278 57.1305 85.8481 56.7839 85.6573 56.5005C85.5593 56.3619 85.4194 56.2602 85.2593 56.2112C85.0992 56.1622 84.9277 56.1685 84.7715 56.2292" fill="#EB996E"/>
<path d="M89.326 39.0838C88.7785 36.8221 87.4124 34.8576 85.504 33.5873C83.9418 32.4324 82.0862 31.7655 80.1615 31.6671C78.2248 31.5818 76.334 32.285 74.9027 33.623C73.887 34.6533 73.3062 36.0499 73.2846 37.5133L73.3962 36.514C73.1031 37.3271 73.1031 38.2206 73.3962 39.0338C73.5566 39.4692 73.7519 39.9118 73.9193 40.3472C74.4186 41.6055 75.3448 42.6372 76.5277 43.2525C77.0635 43.5466 77.6635 43.6965 78.2714 43.6879C78.5757 43.6817 78.875 43.6075 79.1485 43.4707C79.4219 43.3338 79.6629 43.1376 79.8546 42.8956C80.2876 42.1218 80.422 41.2102 80.2312 40.3401C80.6889 41.1999 81.3419 41.9344 82.1353 42.4816C82.5403 42.7465 83.0221 42.8606 83.4997 42.8047C83.9773 42.7488 84.4215 42.5263 84.7577 42.1746C85.3296 41.4608 85.1064 40.333 84.7577 39.4478C85.2973 40.2827 86.0531 40.9475 86.9407 41.368C87.1743 41.5051 87.4331 41.5912 87.7008 41.6207C87.9685 41.6502 88.2393 41.6225 88.496 41.5393C88.7013 41.4352 88.8807 41.2847 89.0209 41.0992C89.161 40.9137 89.2582 40.6981 89.3051 40.4686C89.4086 40.0138 89.4157 39.5416 89.326 39.0838Z" fill="#263238"/>
<path d="M84.2829 40.9828C84.2202 40.9828 84.2341 40.1334 83.9621 38.8414C83.6484 37.1245 82.805 35.5558 81.5559 34.3657C80.8694 33.7267 80.0411 33.2685 79.1427 33.0308C78.4069 32.846 77.6408 32.8265 76.8969 32.9737C76.2113 33.1377 75.5564 33.415 74.958 33.7946C74.958 33.7946 75.0766 33.6161 75.3835 33.3877C75.8239 33.0724 76.3184 32.8448 76.8411 32.7167C77.6233 32.5293 78.4372 32.5293 79.2194 32.7167C80.1832 32.963 81.0708 33.454 81.8 34.1444C83.1079 35.3836 83.9619 37.0436 84.2202 38.8485C84.3032 39.3821 84.3452 39.9215 84.3457 40.4617C84.3543 40.6378 84.3331 40.8142 84.2829 40.9828Z" fill="#455A64"/>
<path d="M148.519 124.206L121.702 113.32C121.702 113.32 107.969 94.8823 108.255 94.5254L98.609 105.333L112.628 124.742L145.122 132.537L150.702 130.952C149.474 124.892 148.519 124.206 148.519 124.206Z" fill="#FFBE9D"/>
<path d="M90.0723 71.6054L86.4177 70.1777L70.6413 72.2264V75.0817L70.188 75.1388C66.7872 75.8789 63.5254 77.1757 60.5282 78.9792C57.7208 80.7332 55.4902 83.3066 54.123 86.3684C52.7558 89.4302 52.3147 92.8406 52.8563 96.161C53.4979 100.244 54.7394 105.205 57.1386 108.075C61.7209 113.564 65.9056 106.783 65.9056 106.783C65.9056 106.783 68.7791 113.493 68.6117 116.669C68.4722 119.332 67.3284 124.871 66.9588 126.599C66.9436 126.668 66.9423 126.739 66.955 126.809C66.9677 126.878 66.9941 126.944 67.0326 127.003C67.0711 127.062 67.1209 127.112 67.1789 127.151C67.237 127.189 67.3021 127.215 67.3703 127.227L100.653 133.53L100.813 125.199L99.7529 90.9358L98.2534 77.6301C98.2534 77.6301 98.3023 71.277 90.0723 71.6054Z" fill="#F56600"/>
<path d="M97.7439 75.418L110.438 94.1845L100.22 106.919L97.7439 75.418Z" fill="#F56600"/>
<path d="M100.485 114.906C100.439 114.503 100.423 114.097 100.436 113.692C100.436 112.85 100.436 111.743 100.394 110.394C100.332 106.773 100.079 103.158 99.6338 99.5655C99.1107 95.3539 98.3087 91.5921 97.7019 88.8581L96.9626 85.6459C96.8554 85.2573 96.7762 84.8613 96.7255 84.4609C96.8841 84.8318 97.0101 85.2164 97.1021 85.6102C97.3183 86.324 97.6112 87.4447 97.946 88.801C98.8465 92.323 99.5314 95.8991 99.9965 99.5084C100.445 103.116 100.664 106.75 100.652 110.387C100.652 111.815 100.617 112.914 100.575 113.692C100.579 114.099 100.549 114.504 100.485 114.906Z" fill="#263238"/>
<path d="M69.2395 86.3746C69.2395 86.4317 68.277 86.4245 66.7356 86.5031C64.7245 86.6147 62.7242 86.8796 60.7515 87.2954C58.7793 87.719 56.8399 88.2892 54.9487 89.0015C53.498 89.5511 52.6262 89.958 52.5983 89.9009C52.7771 89.7575 52.9742 89.6398 53.1841 89.5511C53.5677 89.337 54.1396 89.0657 54.858 88.7588C58.6215 87.1681 62.6435 86.3158 66.7147 86.2461C67.4958 86.2461 68.1096 86.2461 68.5629 86.2889C68.7914 86.2814 69.0197 86.3103 69.2395 86.3746Z" fill="#FAFAFA"/>
<path d="M98.6368 94.9613C98.1267 95.151 97.5944 95.271 97.0536 95.3182C94.4746 95.7035 91.8617 95.7945 89.2631 95.5895C88.7204 95.5799 88.1811 95.4983 87.6589 95.3468C88.1972 95.2978 88.7387 95.2978 89.277 95.3468C90.2674 95.3468 91.6414 95.3468 93.1549 95.3468C94.6683 95.3468 96.0353 95.1897 97.0257 95.0969C97.5576 95.0018 98.0969 94.9564 98.6368 94.9613Z" fill="#FAFAFA"/>
<path d="M104.461 86.4742C103.692 87.3833 102.771 88.1448 101.741 88.7228C100.768 89.3956 99.6828 89.8795 98.5392 90.1504C98.4974 90.0505 99.9341 89.4366 101.552 88.3801C103.17 87.3237 104.391 86.3886 104.461 86.4742Z" fill="#FAFAFA"/>
<path d="M99.3339 77.7727C97.1334 79.7987 94.3297 81.0058 91.376 81.1991C91.376 81.0849 93.294 80.7851 95.4979 79.8214C97.7019 78.8578 99.2642 77.6799 99.3339 77.7727Z" fill="#FAFAFA"/>
<path d="M100.025 109.496C99.8194 109.637 99.5995 109.754 99.3689 109.845C98.9295 110.06 98.2948 110.324 97.4858 110.631C95.3838 111.404 93.2141 111.968 91.0065 112.315C88.799 112.664 86.5634 112.791 84.3318 112.694C83.474 112.658 82.7835 112.594 82.3092 112.529C82.0609 112.512 81.8152 112.467 81.5769 112.394C81.5769 112.329 82.637 112.394 84.3667 112.437C88.8011 112.479 93.2129 111.785 97.43 110.381C99.0202 109.845 100.004 109.438 100.025 109.496Z" fill="#FAFAFA"/>
<path d="M100.283 119.168C100.283 119.168 100.185 119.239 99.9827 119.346L99.0899 119.746C98.3227 120.117 97.1859 120.603 95.7631 121.174C94.3403 121.745 92.6176 122.295 90.6787 122.837C86.4634 123.999 82.1368 124.686 77.7758 124.886C75.7671 124.964 73.9607 124.957 72.4403 124.886C70.9198 124.814 69.6993 124.7 68.8554 124.579L67.8859 124.443C67.7717 124.435 67.6592 124.411 67.5511 124.372C67.6644 124.353 67.7797 124.353 67.8929 124.372L68.8693 124.436C69.7132 124.507 70.9617 124.579 72.4473 124.622C73.9328 124.664 75.7671 124.622 77.7618 124.55C79.7566 124.479 81.9466 124.222 84.2272 123.836C86.5079 123.451 88.656 122.987 90.595 122.487C92.5339 121.988 94.2496 121.424 95.6724 120.903C97.0952 120.381 98.253 119.946 99.0341 119.618L99.9408 119.254C100.051 119.213 100.166 119.184 100.283 119.168Z" fill="#FAFAFA"/>
<path d="M39.1092 270.92L35.336 288.359L28.4521 301.272C28.3351 301.492 28.2634 301.735 28.2417 301.985C28.2199 302.235 28.2485 302.487 28.3256 302.725C28.4028 302.963 28.5268 303.183 28.6902 303.37C28.8535 303.557 29.0526 303.708 29.2751 303.813C29.5335 303.934 29.8165 303.991 30.1005 303.977C30.3844 303.963 30.6611 303.88 30.9072 303.735C34.1015 301.85 45.8257 294.833 46.0279 293.541C46.272 292.049 51.203 275.417 51.203 275.417L39.1092 270.92Z" fill="#F56600"/>
<g opacity="0.6">
<path d="M29.2753 303.812L46.314 292.391L46.1327 293.104C45.9836 293.741 45.6176 294.303 45.1005 294.689C43.7055 295.71 39.8207 298.451 30.9631 303.748C30.7088 303.9 30.4216 303.986 30.1271 303.997C29.8326 304.008 29.5399 303.945 29.2753 303.812Z" fill="white"/>
</g>
<g opacity="0.6">
<path d="M44.1723 285.904C43.9262 286.009 43.7267 286.203 43.6121 286.449C43.4975 286.696 43.476 286.977 43.5515 287.239C43.6447 287.493 43.8295 287.702 44.0682 287.821C44.3069 287.941 44.5812 287.962 44.8349 287.881C45.0983 287.769 45.3116 287.561 45.4329 287.297C45.5542 287.033 45.5747 286.732 45.4905 286.453C45.3669 286.201 45.1536 286.006 44.8943 285.909C44.6349 285.812 44.3491 285.82 44.0956 285.932" fill="white"/>
</g>
<path d="M34.9663 297.203C34.6849 296.561 34.29 295.978 33.8015 295.483C33.2389 295.081 32.607 294.793 31.9393 294.633C31.9393 294.583 32.1834 294.505 32.5949 294.547C33.1304 294.618 33.6343 294.846 34.0456 295.204C34.4601 295.548 34.7658 296.01 34.9244 296.532C35.043 296.939 35.0081 297.203 34.9663 297.203Z" fill="#263238"/>
<path d="M33.2019 299.223C33.1042 299.28 32.6927 298.58 31.8767 298.102C31.3562 297.855 30.8203 297.642 30.2726 297.467C30.5737 297.366 30.8939 297.34 31.2069 297.391C31.5198 297.441 31.8163 297.568 32.072 297.759C32.9996 298.309 33.2995 299.201 33.2019 299.223Z" fill="#263238"/>
<path d="M37.9235 294.79C37.3304 294.116 36.6868 293.491 35.9985 292.919C35.2402 292.446 34.4475 292.033 33.6272 291.684C34.5705 291.665 35.4899 291.989 36.2217 292.598C37.0285 293.095 37.6329 293.873 37.9235 294.79Z" fill="#263238"/>
<path d="M39.507 289.586C39.4372 289.679 38.5933 289.044 37.4146 288.694C36.2359 288.344 35.1688 288.402 35.1619 288.28C35.9381 288.074 36.7543 288.087 37.5241 288.317C38.2939 288.547 38.9886 288.986 39.5349 289.586H39.507Z" fill="#263238"/>
<path d="M40.7414 284.497C40.061 284.067 39.3266 283.733 38.5584 283.505C37.7669 283.395 36.9645 283.395 36.1731 283.505C36.1731 283.462 36.3893 283.291 36.8357 283.155C37.4224 282.992 38.0383 282.972 38.6341 283.096C39.2299 283.22 39.7892 283.484 40.2671 283.869C40.6228 284.212 40.7693 284.469 40.7414 284.497Z" fill="#263238"/>
<path d="M38.8164 282.541C38.8169 282.315 38.8645 282.091 38.9559 281.885C39.1535 281.295 39.4668 280.754 39.8765 280.293C40.1446 279.928 40.5217 279.662 40.9506 279.536C41.0967 279.512 41.2465 279.533 41.3808 279.596C41.5151 279.66 41.6276 279.763 41.7039 279.893C41.8321 280.159 41.8594 280.464 41.7806 280.75C41.6018 281.322 41.234 281.813 40.7403 282.139C40.2467 282.464 39.6578 282.604 39.0745 282.534C38.4993 282.45 37.9612 282.194 37.528 281.798C37.0949 281.402 36.786 280.883 36.6404 280.307C36.6069 280.161 36.6039 280.009 36.6315 279.861C36.6591 279.714 36.7168 279.574 36.8008 279.451C36.8972 279.335 37.0268 279.255 37.171 279.22C37.3152 279.185 37.4665 279.199 37.6028 279.258C37.9971 279.459 38.3335 279.762 38.5793 280.136C38.9489 280.631 39.2299 281.189 39.4093 281.785C39.4942 281.998 39.5346 282.226 39.5278 282.456C39.2467 281.686 38.854 280.964 38.3631 280.314C38.1345 280.009 37.838 279.765 37.4982 279.601C37.4235 279.567 37.3403 279.56 37.2611 279.579C37.1819 279.598 37.1109 279.644 37.0588 279.708C37.0101 279.792 36.9788 279.885 36.9668 279.982C36.9548 280.079 36.9624 280.178 36.9891 280.272C37.1346 280.756 37.4108 281.188 37.7859 281.519C38.161 281.85 38.6197 282.066 39.1093 282.142C39.6027 282.2 40.1008 282.086 40.5226 281.818C40.9444 281.549 41.2649 281.143 41.4319 280.664C41.4994 280.47 41.4994 280.258 41.4319 280.064C41.3923 279.991 41.3313 279.933 41.2575 279.897C41.1837 279.861 41.1008 279.85 41.0204 279.865C40.6569 279.967 40.333 280.181 40.0928 280.479C39.5577 281.088 39.1263 281.786 38.8164 282.541Z" fill="#263238"/>
<g opacity="0.3">
<path d="M38.649 272.812L37.833 276.809L50.1709 278.908L51.2032 275.417L39.0884 270.92L38.649 272.812Z" fill="black"/>
</g>
<path d="M94.208 277.373L93.1897 291.306C93.1897 291.306 106.692 297.017 106.748 299.644L80.245 298.595L80.9424 276.809L94.208 277.373Z" fill="#F56600"/>
<g opacity="0.6">
<path d="M85.0637 289.808C84.8065 289.878 84.5835 290.043 84.437 290.271C84.2904 290.498 84.2305 290.773 84.2686 291.043C84.3273 291.308 84.4826 291.541 84.7028 291.693C84.9231 291.846 85.1918 291.907 85.4543 291.864C85.7278 291.789 85.9648 291.614 86.1194 291.371C86.274 291.129 86.3352 290.836 86.2913 290.55C86.2031 290.279 86.016 290.053 85.769 289.92C85.522 289.787 85.2343 289.757 84.9661 289.836" fill="white"/>
</g>
<g opacity="0.6">
<path d="M80.2592 298.595L80.4126 296.396L105.765 298.202C105.765 298.202 106.93 298.774 106.762 299.63L80.2592 298.595Z" fill="white"/>
</g>
<path d="M93.636 291.185C93.636 291.321 92.9804 291.357 92.3317 291.756C91.6831 292.156 91.3204 292.699 91.2019 292.642C91.0833 292.584 91.3065 291.828 92.1016 291.357C92.8967 290.886 93.6708 291.064 93.636 291.185Z" fill="#263238"/>
<path d="M96.3699 292.491C96.3699 292.627 95.8259 292.827 95.3656 293.369C94.9052 293.912 94.7588 294.497 94.6263 294.49C94.4937 294.483 94.4449 293.726 95.0308 293.062C95.6166 292.398 96.3699 292.348 96.3699 292.491Z" fill="#263238"/>
<path d="M97.8207 295.939C97.7021 295.939 97.5487 295.289 97.9044 294.582C98.2601 293.876 98.8808 293.604 98.9296 293.719C98.9784 293.833 98.5948 294.204 98.3089 294.789C98.0229 295.375 97.9462 295.931 97.8207 295.939Z" fill="#263238"/>
<path d="M93.5108 287.988C93.455 288.102 92.8691 287.895 92.1159 287.916C91.3626 287.938 90.8046 288.152 90.7209 288.038C90.6373 287.923 91.2231 287.474 92.1159 287.459C93.0086 287.445 93.5945 287.888 93.5108 287.988Z" fill="#263238"/>
<g opacity="0.3">
<path d="M94.0196 280.135L93.8383 282.619L80.8308 281.977L80.9215 279.107L94.0196 280.135Z" fill="black"/>
</g>
<path d="M93.6849 285.168C93.2467 285.276 92.7875 285.257 92.3597 285.111C91.8762 285.008 91.4074 284.843 90.9648 284.618C90.7066 284.488 90.4573 284.34 90.2185 284.176C90.0729 284.084 89.9413 283.971 89.828 283.84C89.7511 283.738 89.7094 283.613 89.7094 283.483C89.7094 283.354 89.7511 283.229 89.828 283.127C89.8958 283.036 89.9837 282.964 90.0844 282.915C90.1851 282.867 90.2957 282.844 90.4069 282.848C90.5748 282.855 90.7412 282.884 90.902 282.934C91.1811 283.017 91.452 283.127 91.7111 283.262C92.1515 283.482 92.5543 283.774 92.9037 284.126C93.4966 284.733 93.6849 285.239 93.643 285.261C93.6012 285.282 93.3013 284.875 92.6945 284.369C92.3383 284.084 91.9495 283.844 91.5367 283.655C91.2906 283.55 91.0392 283.46 90.7835 283.384C90.5045 283.298 90.2674 283.291 90.1906 283.384C90.1139 283.476 90.1906 283.455 90.1906 283.541C90.2743 283.635 90.3706 283.717 90.4766 283.783C90.7003 283.943 90.9332 284.088 91.174 284.219C91.5762 284.446 91.999 284.632 92.4364 284.775C92.8612 284.876 93.2784 285.007 93.6849 285.168Z" fill="#263238"/>
<path d="M93.5107 285.355C93.2789 284.954 93.1741 284.491 93.2108 284.027C93.2135 283.525 93.2935 283.026 93.4479 282.549C93.548 282.27 93.6717 282 93.8175 281.743C93.8959 281.566 94.0172 281.413 94.1698 281.298C94.3225 281.183 94.5013 281.11 94.6894 281.086C94.8084 281.094 94.9229 281.136 95.0192 281.208C95.1156 281.28 95.1899 281.379 95.2334 281.493C95.294 281.653 95.3315 281.821 95.345 281.993C95.3908 282.295 95.3908 282.603 95.345 282.906C95.2517 283.411 95.0385 283.884 94.7242 284.284C94.1802 284.998 93.6362 285.105 93.6223 285.062C93.6083 285.019 94.0407 284.755 94.4662 284.091C94.7103 283.713 94.8699 283.284 94.9335 282.835C94.9688 282.574 94.9688 282.31 94.9335 282.05C94.8986 281.764 94.8009 281.521 94.6963 281.55C94.5917 281.578 94.3336 281.75 94.2151 281.978C94.0789 282.207 93.96 282.445 93.8594 282.692C93.6979 283.123 93.5947 283.575 93.5525 284.034C93.4618 284.834 93.5804 285.355 93.5107 285.355Z" fill="#263238"/>
<path d="M66.812 127.099C66.812 127.099 62.6273 127.292 59.8375 141.94C57.0477 156.587 35.7823 275.275 35.7823 275.275L51.203 275.418L80.2589 162.576L78.3269 278.93L93.9917 280.158C93.9917 280.158 105.744 151.462 105.848 143.974C105.988 134.637 100.75 125.193 100.75 125.193L66.812 127.099Z" fill="#263238"/>
<path d="M88.0079 125.85C88.1055 125.85 86.5014 134.237 84.4299 144.538C82.3585 154.838 80.6009 163.176 80.5033 163.154C80.4056 163.133 82.0028 154.767 84.0742 144.466C86.1457 134.166 87.9311 125.828 88.0079 125.85Z" fill="#455A64"/>
<path d="M90.4069 127.94C90.4069 127.897 90.8253 127.769 91.3066 128.204C91.4432 128.331 91.5514 128.486 91.6237 128.66C91.6959 128.834 91.7305 129.022 91.725 129.21C91.7076 129.449 91.6242 129.678 91.4847 129.87C91.3452 130.062 91.1552 130.21 90.9369 130.295C90.724 130.394 90.4881 130.43 90.2563 130.399C90.0245 130.367 89.806 130.269 89.6257 130.117C89.4908 129.988 89.3844 129.83 89.3134 129.655C89.2425 129.481 89.2087 129.293 89.2142 129.103C89.2142 128.447 89.6466 128.218 89.6536 128.261C89.536 128.523 89.4742 128.808 89.4723 129.096C89.4816 129.241 89.5191 129.383 89.5826 129.513C89.6461 129.643 89.7342 129.758 89.8419 129.853C89.9795 129.95 90.1388 130.01 90.305 130.028C90.4712 130.045 90.6392 130.02 90.7933 129.954C90.9475 129.888 91.0829 129.783 91.1872 129.65C91.2915 129.516 91.3613 129.358 91.3903 129.189C91.4005 129.044 91.3824 128.899 91.3368 128.762C91.2913 128.625 91.2194 128.498 91.1252 128.39C90.7835 127.983 90.3999 127.997 90.4069 127.94Z" fill="#455A64"/>
<path d="M89.7444 133.737C89.7444 133.694 90.1769 133.737 90.4419 134.329C90.5093 134.498 90.5398 134.68 90.5314 134.863C90.523 135.045 90.4758 135.224 90.3931 135.386C90.2731 135.578 90.1042 135.733 89.9045 135.835C89.7048 135.936 89.4818 135.98 89.2596 135.962C89.0373 135.944 88.8241 135.864 88.6429 135.731C88.4616 135.598 88.3192 135.417 88.231 135.207C88.1752 135.035 88.157 134.853 88.1775 134.673C88.1979 134.493 88.2567 134.319 88.3495 134.165C88.6773 133.63 89.1237 133.644 89.1098 133.687C89.0958 133.73 88.775 133.829 88.5727 134.286C88.4704 134.542 88.4704 134.83 88.5727 135.086C88.6455 135.227 88.7522 135.348 88.8827 135.436C89.0132 135.524 89.1634 135.577 89.3193 135.59C89.4752 135.603 89.6317 135.575 89.7744 135.509C89.917 135.444 90.041 135.342 90.135 135.214C90.2664 134.97 90.2989 134.683 90.2257 134.415C90.0234 133.929 89.7096 133.787 89.7444 133.737Z" fill="#455A64"/>
<path d="M74.9651 128.084C74.9364 128.33 74.8754 128.57 74.7837 128.798C74.5659 129.452 74.2929 130.085 73.9677 130.69C72.9036 132.709 71.3666 134.427 69.4946 135.689C67.6225 136.951 65.4738 137.718 63.2409 137.921C62.5703 137.981 61.8959 137.981 61.2253 137.921C60.989 137.913 60.7546 137.875 60.5278 137.807C60.5278 137.735 61.581 137.857 63.2479 137.642C65.4204 137.373 67.5021 136.591 69.3295 135.358C71.1569 134.126 72.6801 132.477 73.7794 130.54C74.5954 129.098 74.9023 128.063 74.9651 128.084Z" fill="#455A64"/>
<path d="M104.97 138.498C104.97 138.498 104.788 138.412 104.502 138.212C104.103 137.918 103.729 137.589 103.386 137.227C102.239 136.039 101.344 134.621 100.757 133.062C100.171 131.504 99.9045 129.838 99.9758 128.169C99.9918 127.666 100.055 127.167 100.164 126.677C100.241 126.327 100.29 126.141 100.318 126.149C100.345 126.156 100.234 126.927 100.234 128.176C100.235 131.455 101.425 134.617 103.575 137.049C104.391 137.97 105.004 138.441 104.97 138.498Z" fill="#455A64"/>
<path d="M159.071 138.912C159.301 138.341 159.238 138.569 155.542 136.057C155.542 136.057 160.843 139.626 160.292 137.927C159.815 137.283 159.232 136.73 158.569 136.292C159.964 137.134 160.773 137.227 161.017 136.885C161.435 136.292 158.401 134.029 156.958 133.009C158.278 133.975 159.662 134.846 161.101 135.614C161.958 135.885 161.547 134.857 160.968 134.108C160.389 133.358 155.898 128.933 154.691 127.612C154.576 127.512 154.484 127.387 154.421 127.246C154.357 127.106 154.325 126.953 154.325 126.798C154.325 126.644 154.357 126.491 154.421 126.35C154.484 126.21 154.576 126.085 154.691 125.985C156.853 124.557 157.802 122.28 157.774 121.53C157.75 121.362 157.674 121.205 157.558 121.083C157.441 120.961 157.29 120.88 157.126 120.851C156.962 120.823 156.793 120.848 156.643 120.924C156.494 121 156.372 121.122 156.295 121.273C155.749 121.968 155.113 122.582 154.405 123.101C153.856 123.539 153.238 123.879 152.578 124.107C151.811 124.364 148.037 124.15 147.228 123.729L144.655 132.659C144.655 132.659 153.994 137.127 155.765 137.998C157.941 139.055 158.911 139.347 159.071 138.912Z" fill="#FFBE9D"/>
<path d="M153.861 134.736C153.784 134.843 154.998 135.75 156.567 136.771C158.136 137.791 159.454 138.527 159.517 138.42C159.58 138.312 158.366 137.399 156.804 136.385C155.242 135.372 153.93 134.601 153.861 134.736Z" fill="#EB996E"/>
<path d="M154.74 132.988C154.67 133.095 155.912 134.137 157.53 135.322C159.148 136.507 160.487 137.385 160.557 137.285C160.626 137.186 159.392 136.136 157.767 134.951C156.142 133.766 154.817 132.888 154.74 132.988Z" fill="#EB996E"/>
<path d="M155.667 131.217C155.597 131.317 156.755 132.331 158.255 133.473C159.754 134.615 161.045 135.457 161.1 135.357C161.156 135.257 160.019 134.244 158.52 133.102C157.02 131.959 155.744 131.117 155.667 131.217Z" fill="#EB996E"/>
<path d="M60.6813 98.8742L67.5302 99.2597C68.0154 101.217 68.6641 103.127 69.4692 104.97C74.986 95.1766 79.2335 82.0493 80.3215 76.7741C80.1681 76.2554 79.9798 75.6701 79.7566 75.0181C79.5895 74.0326 79.6179 73.0227 79.8403 72.0486C80.0286 70.8779 80.3494 69.2932 80.4401 68.5651C80.74 66.338 81.0887 65.9811 81.835 66.2381C82.8672 66.5807 81.4095 72.4983 82.2534 72.6268C82.7138 72.6911 83.2648 70.6638 83.4321 69.0006C83.5995 67.3374 84.3249 62.2264 84.8619 61.8623C85.65 61.3626 86.3335 62.155 86.1382 63.8111C85.943 65.4671 85.6849 70.4853 86.5428 70.5496C87.4006 70.6138 88.0981 62.1336 88.0981 62.1336C88.0981 62.1336 87.9656 60.2919 88.956 60.3347C90.7484 60.4132 89.3535 69.3575 89.2001 70.2069C89.0885 70.7923 90.0231 70.9208 90.1068 70.264C90.1904 69.6073 90.6229 61.7766 92.4432 61.8409C93.8381 61.8909 91.3622 69.2076 92.1503 70.9065C92.9384 72.6054 93.4824 65.1459 94.8215 65.2458C95.3167 65.2887 95.6864 65.3886 94.7727 69.6073C93.881 72.962 92.8124 76.2647 91.5714 79.5009C89.479 91.2077 80.1402 128.655 65.5495 121.802C57.3893 117.969 53.5742 98.9599 53.5742 98.9599L60.6813 98.8742Z" fill="#FFBE9D"/>
<path d="M91.5854 79.5657C91.5974 79.4772 91.6208 79.3908 91.6551 79.3087C91.7179 79.1231 91.7946 78.8804 91.8992 78.5949C92.1294 77.9167 92.4432 76.9745 92.8547 75.7396C93.2662 74.5047 93.7614 73.0056 94.2496 71.2353C94.5007 70.3573 94.71 69.4008 94.8983 68.38C94.9959 67.8661 95.0866 67.3378 95.1494 66.7953C95.1667 66.5268 95.1667 66.2573 95.1494 65.9887C95.1494 65.7103 95.0866 65.4819 94.8704 65.4748C94.6542 65.4676 94.5007 65.6032 94.3473 65.8388C94.2084 66.0909 94.0939 66.3563 94.0055 66.6312C93.8103 67.1951 93.6568 67.7947 93.5034 68.4014C93.3499 69.0082 93.2104 69.6435 93.0291 70.2859C92.95 70.6379 92.8082 70.9718 92.6106 71.271C92.561 71.3296 92.4954 71.3719 92.4223 71.3924C92.3763 71.4027 92.3285 71.4023 92.2826 71.3912C92.2368 71.3801 92.1939 71.3585 92.1573 71.3281C92.0771 71.2529 92.011 71.1634 91.962 71.064C91.8883 70.8887 91.839 70.7037 91.8155 70.5144C91.7837 69.0746 91.9243 67.6362 92.234 66.2314C92.3526 65.5176 92.4781 64.8038 92.5688 64.0899C92.6106 63.7259 92.6525 63.3761 92.6595 62.9906C92.6664 62.6052 92.6106 62.1983 92.4642 62.134C92.3177 62.0698 91.962 62.2697 91.7667 62.5695C91.5739 62.8862 91.4216 63.2268 91.3134 63.5831C91.0756 64.3288 90.896 65.0926 90.7763 65.8674C90.6438 66.6526 90.5392 67.4521 90.4485 68.2658C90.4137 68.6727 90.3718 69.0796 90.3369 69.4936L90.2811 70.1146C90.2886 70.2473 90.2675 70.3799 90.2193 70.5033C90.171 70.6267 90.0969 70.7377 90.0022 70.8285C89.8827 70.9178 89.7386 70.9659 89.5907 70.9659C89.4427 70.9659 89.2986 70.9178 89.1792 70.8285C89.1115 70.7827 89.0542 70.7228 89.0109 70.6526C88.9676 70.5825 88.9394 70.5037 88.9281 70.4216C88.9175 70.3458 88.9175 70.2689 88.9281 70.1931V70.0432L89.1164 68.794C89.235 67.9517 89.3326 67.1094 89.4093 66.2528C89.4861 65.3962 89.5488 64.5325 89.5628 63.6688C89.6036 62.8136 89.519 61.957 89.3117 61.1276C89.2636 60.9171 89.1389 60.7333 88.963 60.6136C88.8788 60.5859 88.7883 60.5862 88.7044 60.6144C88.6205 60.6426 88.5474 60.6973 88.4957 60.7706C88.2698 61.1932 88.1773 61.6769 88.2306 62.1555C88.0772 63.833 87.9028 65.4819 87.6657 67.1023C87.5471 67.9089 87.4146 68.7155 87.2193 69.5079C87.1635 69.7006 87.1077 69.9005 87.038 70.1003C86.9717 70.3426 86.8326 70.5574 86.6404 70.7142C86.5555 70.7569 86.4589 70.7689 86.3664 70.7482C86.2739 70.7274 86.191 70.6752 86.1313 70.6C86.0462 70.5085 85.9818 70.3988 85.943 70.2788C85.8678 70.0808 85.814 69.8749 85.7826 69.6649C85.6191 68.1116 85.6051 66.5455 85.7407 64.9893C85.8438 64.2639 85.8835 63.5305 85.8593 62.7979C85.8367 62.4852 85.6968 62.1936 85.4687 61.9841C85.4152 61.9501 85.3554 61.9274 85.2931 61.9176C85.2308 61.9078 85.1671 61.911 85.1061 61.927C85.0408 61.9495 84.9778 61.9782 84.9177 62.0127C84.855 62.0698 84.8619 62.0127 84.8201 62.134C84.5679 62.776 84.3832 63.4436 84.2691 64.1256C84.1296 64.8395 84.0111 65.489 83.9064 66.16C83.8018 66.831 83.7042 67.4877 83.6205 68.1445C83.5368 68.8012 83.4949 69.4436 83.3694 70.0861C83.261 70.7137 83.0976 71.3301 82.8812 71.9277C82.8237 72.0798 82.7561 72.2277 82.6789 72.3703C82.5813 72.5059 82.5255 72.6773 82.2604 72.7629C82.1926 72.7757 82.1227 72.7675 82.0593 72.7396C81.996 72.7116 81.9422 72.6651 81.9048 72.6059C81.856 72.5235 81.8184 72.4346 81.7932 72.3418C81.7618 72.1866 81.7432 72.029 81.7374 71.8706C81.7374 70.65 81.8978 69.5364 81.9605 68.4585C82.006 67.9433 82.006 67.4248 81.9605 66.9095C81.9605 66.6811 81.8559 66.4099 81.7304 66.3599C81.6425 66.3158 81.5458 66.2928 81.4479 66.2928C81.35 66.2928 81.2534 66.3158 81.1655 66.3599C80.8727 66.6817 80.6914 67.093 80.6493 67.5306C80.5447 67.966 80.5029 68.4086 80.4262 68.8297C80.1332 70.5144 79.8263 71.9706 79.6799 73.1555C79.6111 73.6766 79.6111 74.2048 79.6799 74.7259C79.7775 75.1542 79.924 75.5397 80.0007 75.8395C80.0774 76.1393 80.1541 76.3535 80.203 76.5533C80.2289 76.6298 80.2476 76.7087 80.2588 76.7889C80.217 76.7198 80.1841 76.6454 80.1611 76.5676L79.924 75.8538C79.8263 75.5468 79.6799 75.2042 79.5613 74.7331C79.4867 74.198 79.4867 73.6549 79.5613 73.1198C79.6938 71.9135 79.9728 70.4715 80.2588 68.7798C80.3355 68.3586 80.3773 67.916 80.468 67.4592C80.5179 67.2179 80.5808 66.9796 80.6563 66.7454C80.7261 66.4857 80.8782 66.2572 81.0887 66.0958C81.2155 66.027 81.3568 65.9911 81.5002 65.9911C81.6437 65.9911 81.785 66.027 81.9117 66.0958C82.0481 66.1838 82.1601 66.3061 82.2371 66.4511C82.314 66.5961 82.3533 66.7588 82.3511 66.9238C82.4 67.4604 82.4 68.0005 82.3511 68.5371C82.3023 69.6221 82.1349 70.7571 82.1628 71.9135C82.1679 72.0503 82.1842 72.1864 82.2116 72.3203C82.2116 72.456 82.3093 72.5131 82.2953 72.4845C82.2814 72.456 82.4278 72.3703 82.4836 72.2561C82.5524 72.1294 82.613 71.9983 82.665 71.8635C82.8716 71.2849 83.0234 70.6873 83.1183 70.0789C83.2369 69.4579 83.2787 68.8155 83.3624 68.1516C83.4461 67.4877 83.5298 66.831 83.6344 66.1529C83.739 65.4748 83.8576 64.7966 83.9901 64.1042C84.1035 63.3811 84.3002 62.6742 84.576 61.9984C84.6317 61.8851 84.716 61.789 84.8201 61.72C84.9128 61.668 85.0111 61.6273 85.113 61.5987C85.23 61.5645 85.3528 61.5563 85.4731 61.5748C85.5934 61.5932 85.7085 61.6379 85.8105 61.7058C85.9723 61.8373 86.106 62.0015 86.2032 62.1881C86.3004 62.3748 86.359 62.5799 86.3754 62.7908C86.4278 63.1792 86.4278 63.5731 86.3754 63.9614C86.3405 64.3255 86.3057 64.6753 86.2847 65.075C86.1488 66.5954 86.1629 68.126 86.3266 69.6435C86.3565 69.8237 86.4032 70.0006 86.4661 70.1717C86.487 70.2408 86.5228 70.3042 86.5707 70.3573C86.5707 70.3573 86.5707 70.3573 86.6056 70.3573C86.6056 70.5215 86.6056 70.3573 86.6056 70.4216C86.6056 70.4858 86.6056 70.4216 86.6056 70.3645C86.6926 70.2452 86.7608 70.1127 86.8078 69.9719C86.8729 69.7958 86.9287 69.6102 86.9752 69.4151C87.1635 68.6584 87.2891 67.8589 87.4076 67.0595C87.6448 65.4533 87.8191 63.8044 87.9656 62.134V62.1697C87.9036 61.5814 88.0283 60.9882 88.3213 60.478C88.4332 60.3322 88.5866 60.2256 88.7604 60.1732C88.9341 60.1207 89.1195 60.125 89.2908 60.1853C89.437 60.2684 89.5655 60.3807 89.6686 60.5156C89.7716 60.6505 89.8471 60.8052 89.8906 60.9705C90.1139 61.8483 90.2057 62.7557 90.1626 63.6616C90.1626 64.5468 90.0859 65.4177 90.0091 66.2814C89.9324 67.1451 89.8278 67.9946 89.7092 68.8369C89.6465 69.2652 89.5837 69.6792 89.5209 70.1003C89.4651 70.3645 89.4791 70.3716 89.5209 70.4501C89.5693 70.4836 89.6264 70.5014 89.6848 70.5014C89.7432 70.5014 89.8003 70.4836 89.8487 70.4501C89.9324 70.3859 89.9464 70.2645 89.9673 70.029L90.0161 69.4079L90.1417 68.173C90.2254 67.3593 90.3369 66.5455 90.4695 65.7531C90.5985 64.9573 90.785 64.1723 91.0274 63.4047C91.1541 63.0167 91.3249 62.6453 91.5366 62.2982C91.6518 62.1112 91.8038 61.9507 91.9829 61.8271C92.0823 61.7535 92.1976 61.7053 92.3189 61.6867C92.4403 61.6681 92.5642 61.6795 92.6804 61.72C92.7872 61.7875 92.8774 61.8793 92.9439 61.9882C93.0105 62.0972 93.0516 62.2203 93.064 62.3482C93.0928 62.549 93.1044 62.752 93.0989 62.955C93.0989 63.3476 93.05 63.7259 93.0082 64.1042C92.9105 64.818 92.778 65.5747 92.6525 66.2957C92.3529 67.6516 92.2078 69.0386 92.2201 70.4287C92.2397 70.578 92.2772 70.7242 92.3317 70.8641C92.357 70.9148 92.3874 70.9627 92.4223 71.0069C92.4223 71.0069 92.4223 71.0069 92.4223 70.9569C92.5789 70.6989 92.6943 70.417 92.7641 70.1218C92.9454 69.5007 93.0919 68.8726 93.2523 68.2587C93.3961 67.6479 93.5707 67.0451 93.7754 66.4527C93.872 66.1593 93.9982 65.877 94.152 65.6104C94.2352 65.4651 94.344 65.3368 94.4728 65.2321C94.543 65.1698 94.6267 65.1257 94.7169 65.1036C94.8071 65.0891 94.8988 65.0891 94.9889 65.1036C95.0841 65.1133 95.175 65.1489 95.2523 65.2066C95.3295 65.2643 95.3903 65.3421 95.4283 65.4319C95.4866 65.5819 95.5173 65.7416 95.519 65.9031C95.5244 66.1918 95.5081 66.4806 95.4702 66.7668C95.4074 67.3236 95.3028 67.8518 95.2052 68.3729C95.0029 69.3937 94.7797 70.3645 94.5077 71.2282C93.9846 72.9985 93.4615 74.4975 93.0361 75.7182C92.6106 76.9388 92.248 77.8596 92.0039 78.5164C91.8853 78.8162 91.7876 79.0517 91.7179 79.2302C91.6867 79.3469 91.6422 79.4595 91.5854 79.5657Z" fill="#EB996E"/>
<path d="M53.5117 99.6802C54.8369 104.47 57.4314 111.858 60.2142 119.667C60.3019 119.919 60.4607 120.138 60.6703 120.297C60.8799 120.457 61.1309 120.549 61.3916 120.562C61.6523 120.575 61.9109 120.508 62.1346 120.37C62.3584 120.233 62.5372 120.03 62.6483 119.789L69.4694 105.02C69.4694 105.02 67.8234 92.8846 67.9629 93.32C68.1024 93.7555 53.8883 94.8905 53.8883 94.8905L53.5117 99.6802Z" fill="#F56600"/>
<path d="M68.8834 97.303C68.8834 97.3601 68.0325 97.6171 66.6864 98.1453C64.9272 98.8288 63.2324 99.6746 61.6229 100.672C60.0156 101.675 58.4984 102.821 57.0895 104.099C56.0084 105.077 55.3877 105.748 55.3458 105.705C55.304 105.662 55.4644 105.505 55.7294 105.184C56.1031 104.737 56.4988 104.311 56.9151 103.906C58.2899 102.551 59.8054 101.354 61.4346 100.337C63.0643 99.3318 64.7945 98.5086 66.5957 97.8812C67.1402 97.6892 67.6943 97.5272 68.2557 97.3958C68.4587 97.3308 68.6707 97.2995 68.8834 97.303Z" fill="#FAFAFA"/>
<path d="M71.5896 100.987C71.1464 100.529 70.762 100.016 70.4457 99.459C69.6312 98.1592 68.931 96.7881 68.3534 95.3616C67.7753 93.9309 67.3248 92.4496 67.0073 90.9359C66.8448 90.3167 66.7627 89.6783 66.7632 89.0371C66.9712 89.6356 67.1367 90.2487 67.2584 90.8716C67.632 92.3498 68.0979 93.8018 68.6533 95.2188C69.2335 96.6284 69.8997 97.9993 70.648 99.3233C70.9963 99.8566 71.3108 100.412 71.5896 100.987Z" fill="#263238"/>
<path d="M76.137 35.5857C74.9537 37.5817 74.2202 39.8226 73.9898 42.1453C73.7593 44.468 74.0378 46.8141 74.8048 49.0128C75.5023 50.9758 76.6182 52.9103 76.416 54.9947C76.2137 57.079 74.6235 59.142 75.1815 61.1978C75.5163 62.4185 76.5345 63.3393 76.9321 64.5242C77.3854 65.9519 76.9321 67.4581 76.688 68.9214C76.13 72.6619 77.3017 76.4237 77.5877 80.1927C77.8736 83.9617 76.8902 88.3803 73.5983 90.0221C72.6009 90.5218 71.2967 90.6646 70.4667 89.9008C69.4066 88.9371 69.6995 87.1954 69.9924 85.7677C72.8799 71.4912 63.9595 57.5573 65.996 43.1095C66.3238 40.7967 67.5862 36.8706 69.2113 35.2574C70.8364 33.6441 75.3489 33.8297 76.8833 35.5429" fill="#263238"/>
<path d="M62.3972 77.0012C62.3972 77.0012 62.8227 76.4872 63.4504 75.4736C64.3312 74.042 64.9482 72.4573 65.2707 70.798C65.4812 69.655 65.5538 68.49 65.4869 67.3289C65.3649 65.9788 65.316 64.6228 65.3405 63.2672C65.3821 62.5248 65.5157 61.7908 65.738 61.0829C65.9929 60.3536 66.3152 59.6509 66.7005 58.9842C67.4816 57.6351 68.465 56.3788 69.3717 55.0368C70.3028 53.7685 70.9504 52.3064 71.2688 50.7538C71.4234 49.2914 71.341 47.8129 71.0247 46.3781C70.7608 45.0445 70.6578 43.6828 70.7178 42.3235C70.8008 41.1362 71.0353 39.9651 71.4153 38.8401C71.948 37.2075 72.7867 35.697 73.8843 34.3929C74.1758 34.0384 74.4928 33.7067 74.8328 33.4007C74.9406 33.2832 75.0624 33.18 75.1955 33.0938C75.1955 33.0938 74.7282 33.5577 73.9889 34.5214C72.228 36.7584 71.1984 39.5051 71.0456 42.3735C70.9989 43.7105 71.1137 45.0484 71.3874 46.3566C71.7201 47.8301 71.8096 49.3501 71.6524 50.8537C71.3218 52.4496 70.6554 53.9526 69.6995 55.2581C68.7859 56.6215 67.8025 57.8707 67.0353 59.1841C66.6579 59.826 66.3448 60.5052 66.1007 61.2114C65.8801 61.8904 65.7464 62.5958 65.7031 63.31C65.6723 64.6507 65.7095 65.9921 65.8147 67.3289C65.8701 68.5134 65.7811 69.7003 65.5497 70.8623C65.2002 72.5442 64.5371 74.1414 63.5968 75.5664C63.3423 75.9516 63.0626 76.3189 62.7599 76.6657C62.6514 76.7908 62.5297 76.9033 62.3972 77.0012Z" fill="#455A64"/>
<path d="M55.7854 78.0653C55.8416 77.8989 55.914 77.7386 56.0016 77.5871C56.176 77.2516 56.3992 76.809 56.6991 76.2522C57.2849 75.0887 58.1567 73.3969 59.0146 71.2554C60.064 68.7543 60.6459 66.074 60.7303 63.3534C60.7307 62.5695 60.6724 61.7868 60.556 61.012C60.4374 60.2125 60.2561 59.4059 60.1375 58.5636C59.9925 57.6923 60.0114 56.8007 60.1933 55.9367C60.4292 55.0497 60.9142 54.253 61.5882 53.6453C62.8994 52.4247 64.4826 51.6252 65.3056 50.1904C66.0186 48.7677 66.4388 47.2104 66.5401 45.6148C66.6877 44.1521 67.011 42.7136 67.5026 41.3318C68.6081 38.3655 70.5779 35.8187 73.145 34.0365C73.5542 33.7546 73.9805 33.4995 74.4213 33.2727C74.5701 33.1815 74.7294 33.1096 74.8956 33.0586C74.8956 33.0586 74.2679 33.4012 73.2287 34.1579C71.764 35.2276 70.4959 36.5544 69.4834 38.0768C68.7811 39.1204 68.2094 40.2499 67.7816 41.4389C67.3116 42.8239 67.0071 44.262 66.8749 45.7219C66.6656 47.2423 66.4983 48.9412 65.6055 50.4474C64.7128 51.9536 63.0807 52.8102 61.8323 54.0165C61.1961 54.5816 60.7374 55.3267 60.5141 56.158C60.3446 56.9754 60.328 57.8184 60.4653 58.6421C60.5769 59.463 60.7513 60.2768 60.8698 61.0834C60.9905 61.8768 61.0465 62.679 61.0372 63.4819C60.9425 66.2523 60.3292 68.9784 59.2308 71.5124C58.5174 73.2249 57.7069 74.8933 56.8037 76.5092L56.0644 77.6299C55.9867 77.7847 55.8932 77.9307 55.7854 78.0653Z" fill="#455A64"/>
<path d="M286.544 279.771C286.576 279.667 286.618 279.567 286.67 279.471C286.767 279.257 286.9 278.971 287.06 278.607C287.545 277.492 287.935 276.336 288.225 275.152C288.992 272.083 289.264 267.393 288.127 261.825C287.51 258.789 286.701 255.796 285.707 252.867C284.689 249.69 283.496 246.321 282.527 242.673C281.432 238.869 280.903 234.918 280.957 230.952C281.104 226.805 282.304 222.672 283.622 218.546C284.94 214.42 286.3 210.401 286.704 206.332C287.154 202.431 286.388 198.483 284.514 195.054C282.771 191.763 280.574 188.944 278.935 186.031C277.4 183.325 276.27 180.399 275.58 177.351C274.59 172.938 274.517 168.361 275.364 163.917C275.673 162.291 276.14 160.7 276.759 159.17C276.74 159.277 276.712 159.382 276.675 159.484L276.396 160.391C276.159 161.19 275.845 162.389 275.545 163.96C274.766 168.384 274.882 172.925 275.887 177.301C276.587 180.312 277.722 183.199 279.256 185.867C280.895 188.722 283.099 191.578 284.884 194.883C286.803 198.381 287.592 202.412 287.137 206.397C286.725 210.523 285.358 214.584 284.04 218.703C282.722 222.822 281.536 226.912 281.39 230.988C281.328 234.914 281.845 238.827 282.924 242.595C283.88 246.221 285.052 249.59 286.063 252.781C287.048 255.727 287.84 258.736 288.434 261.79C289.543 267.4 289.229 272.14 288.434 275.217C288.123 276.403 287.705 277.557 287.186 278.664L286.753 279.514C286.693 279.607 286.623 279.694 286.544 279.771Z" fill="#263238"/>
<path d="M281.167 188.907C281.167 188.907 277.833 177.979 283.817 171.583C283.864 171.531 283.923 171.494 283.989 171.475C284.055 171.456 284.125 171.456 284.19 171.475C284.256 171.495 284.315 171.532 284.362 171.584C284.408 171.636 284.439 171.699 284.452 171.768C284.773 173.574 285.17 179.071 281.167 188.907Z" fill="#F56600"/>
<path d="M283.168 175.225C283.158 175.901 283.083 176.576 282.945 177.238C282.722 178.63 282.464 180.257 282.185 182.056C281.906 183.855 281.648 185.489 281.432 186.874C281.371 187.549 281.254 188.218 281.083 188.873C281.017 188.198 281.032 187.517 281.125 186.846C281.236 185.597 281.453 183.883 281.752 181.999C282.052 180.114 282.38 178.43 282.638 177.195C282.74 176.519 282.918 175.858 283.168 175.225Z" fill="#263238"/>
<path d="M285.087 214.685C285.087 214.685 287.13 203.428 295.346 200.644C295.411 200.621 295.481 200.617 295.548 200.632C295.615 200.647 295.676 200.681 295.725 200.73C295.775 200.779 295.809 200.841 295.826 200.909C295.843 200.977 295.841 201.048 295.82 201.115C295.276 202.85 293.121 207.897 285.087 214.685Z" fill="#F56600"/>
<path d="M293.107 203.535C292.789 204.13 292.415 204.691 291.991 205.213L289.111 209.103L286.251 213.008C285.891 213.574 285.483 214.107 285.031 214.599C285.285 213.971 285.613 213.377 286.007 212.829C286.705 211.78 287.653 210.366 288.797 208.846C289.941 207.326 290.98 205.991 291.768 205.02C292.16 204.476 292.609 203.978 293.107 203.535Z" fill="#263238"/>
<path d="M282.868 242.901C282.868 242.901 281.627 231.523 288.699 226.419C288.754 226.375 288.819 226.348 288.888 226.342C288.957 226.335 289.026 226.348 289.088 226.381C289.15 226.413 289.201 226.463 289.236 226.524C289.271 226.585 289.288 226.655 289.285 226.726C289.264 228.56 288.629 234.028 282.868 242.901Z" fill="#F56600"/>
<path d="M287.402 229.861C287.272 230.526 287.073 231.174 286.809 231.796L285.163 236.379C284.549 238.092 283.998 239.641 283.531 240.961C283.352 241.611 283.119 242.244 282.833 242.853C282.898 242.176 283.043 241.509 283.266 240.869C283.608 239.669 284.138 238.013 284.786 236.229C285.435 234.444 286.07 232.838 286.551 231.689C286.773 231.052 287.058 230.439 287.402 229.861Z" fill="#263238"/>
<path d="M289.055 271.298C289.055 271.298 288.218 259.877 295.458 255.037C295.515 254.997 295.581 254.975 295.65 254.971C295.718 254.968 295.787 254.984 295.847 255.018C295.907 255.052 295.956 255.103 295.99 255.164C296.024 255.226 296.04 255.295 296.037 255.366C295.953 257.2 295.13 262.647 289.055 271.298Z" fill="#F56600"/>
<path d="M294.021 258.436C293.864 259.095 293.642 259.736 293.358 260.349C292.842 261.648 292.228 263.204 291.552 264.867C290.875 266.53 290.282 268.079 289.766 269.386C289.56 270.03 289.296 270.654 288.978 271.249C289.071 270.574 289.241 269.912 289.487 269.279C289.871 268.094 290.457 266.466 291.168 264.703C291.879 262.94 292.563 261.355 293.086 260.227C293.334 259.598 293.648 258.997 294.021 258.436Z" fill="#263238"/>
<path d="M276.368 179.308C276.368 179.308 266.479 173.997 266.262 165.152C266.262 165.083 266.28 165.015 266.314 164.955C266.348 164.895 266.397 164.846 266.456 164.812C266.516 164.778 266.583 164.762 266.65 164.764C266.718 164.766 266.784 164.787 266.841 164.824C268.313 165.866 272.4 169.464 276.368 179.308Z" fill="#F56600"/>
<path d="M268.32 168.193C268.784 168.679 269.198 169.212 269.554 169.785C270.363 170.92 271.305 172.262 272.344 173.74L275.134 177.68C275.559 178.198 275.937 178.755 276.264 179.343C275.754 178.909 275.297 178.413 274.904 177.866C274.116 176.909 273.083 175.539 271.995 173.99C270.907 172.441 269.952 171.006 269.296 169.957C268.912 169.405 268.584 168.814 268.32 168.193Z" fill="#263238"/>
<path d="M287.018 202.77C287.018 202.77 276.808 198.094 276.089 189.264C276.083 189.195 276.096 189.125 276.127 189.063C276.157 189 276.204 188.948 276.262 188.911C276.319 188.874 276.386 188.854 276.454 188.854C276.522 188.853 276.589 188.871 276.647 188.907C278.175 189.857 282.464 193.183 287.018 202.77Z" fill="#F56600"/>
<path d="M278.335 192.178C278.827 192.631 279.271 193.136 279.66 193.684L282.687 197.46L285.721 201.222C286.176 201.714 286.586 202.247 286.949 202.814C286.413 202.409 285.927 201.942 285.498 201.422C284.661 200.508 283.545 199.209 282.366 197.731C281.188 196.254 280.155 194.876 279.43 193.869C279.005 193.349 278.638 192.781 278.335 192.178Z" fill="#263238"/>
<path d="M281.125 228.961C281.125 228.961 274.151 220.038 277.408 211.829C277.433 211.764 277.476 211.708 277.531 211.667C277.586 211.626 277.651 211.601 277.718 211.595C277.786 211.589 277.854 211.603 277.915 211.634C277.976 211.665 278.027 211.713 278.063 211.772C279.033 213.321 281.355 218.289 281.125 228.961Z" fill="#F56600"/>
<path d="M278.112 215.455C278.351 216.089 278.524 216.747 278.628 217.418C278.921 218.789 279.263 220.402 279.64 222.186C280.016 223.971 280.372 225.577 280.665 226.948C280.851 227.598 280.98 228.265 281.049 228.939C280.742 228.332 280.508 227.69 280.351 227.026C280.009 225.82 279.591 224.171 279.2 222.272C278.81 220.373 278.503 218.703 278.308 217.475C278.17 216.811 278.105 216.134 278.112 215.455Z" fill="#263238"/>
<path d="M288.1 259.734C288.1 259.734 277.966 254.887 277.394 246.05C277.387 245.979 277.4 245.909 277.431 245.845C277.461 245.782 277.509 245.728 277.568 245.691C277.626 245.654 277.694 245.634 277.763 245.635C277.833 245.635 277.9 245.655 277.959 245.693C279.458 246.671 283.692 250.076 288.1 259.734Z" fill="#F56600"/>
<path d="M279.57 248.992C280.049 249.46 280.483 249.974 280.867 250.527L283.831 254.346L286.802 258.165C287.249 258.664 287.651 259.204 288.002 259.778C287.483 259.361 287.014 258.882 286.607 258.35C285.777 257.422 284.689 256.102 283.531 254.603C282.373 253.104 281.369 251.712 280.658 250.691C280.232 250.17 279.867 249.6 279.57 248.992Z" fill="#263238"/>
<path d="M308.263 214.734C308.263 214.734 308.263 214.82 308.263 214.984C308.263 215.148 308.263 215.42 308.263 215.698C308.263 216.412 308.193 217.318 308.144 218.475C308.019 220.916 307.83 224.321 307.614 228.39C306.917 232.53 304.824 237.12 302.035 241.581C300.005 244.865 297.85 247.849 296.037 250.626C294.381 253.062 292.895 255.615 291.587 258.263C290.721 260.053 290.02 261.922 289.494 263.846C289.32 264.524 289.181 265.059 289.104 265.423C289.071 265.613 289.022 265.799 288.957 265.98C288.96 265.788 288.983 265.596 289.027 265.409C289.076 265.038 289.181 264.495 289.341 263.803C289.81 261.846 290.476 259.944 291.329 258.128C292.625 255.458 294.11 252.889 295.771 250.44C297.599 247.642 299.712 244.651 301.735 241.389C304.49 236.949 306.54 232.43 307.314 228.354C307.593 224.292 307.823 220.895 308.012 218.453C308.102 217.297 308.179 216.376 308.235 215.684C308.235 215.398 308.284 215.156 308.305 214.97C308.281 214.894 308.267 214.814 308.263 214.734Z" fill="#263238"/>
<path d="M302.23 240.76C302.23 240.76 306.519 230.196 301.128 223.265C301.086 223.209 301.03 223.166 300.966 223.142C300.902 223.117 300.832 223.111 300.765 223.124C300.698 223.137 300.635 223.17 300.585 223.217C300.535 223.265 300.498 223.326 300.479 223.393C299.998 225.163 299.112 230.596 302.23 240.76Z" fill="#F56600"/>
<path d="M301.449 226.955C301.634 227.607 301.748 228.277 301.791 228.954C301.944 230.196 302.111 231.916 302.244 233.822C302.377 235.728 302.439 237.455 302.439 238.712C302.481 239.39 302.441 240.071 302.321 240.739C302.2 240.073 302.142 239.396 302.146 238.719C302.056 237.291 301.944 235.671 301.826 233.851C301.707 232.03 301.595 230.381 301.498 228.982C301.416 228.31 301.4 227.631 301.449 226.955Z" fill="#263238"/>
<g opacity="0.3">
<path d="M302.23 240.76C302.23 240.76 306.519 230.196 301.128 223.265C301.086 223.209 301.03 223.166 300.966 223.142C300.902 223.117 300.832 223.111 300.765 223.124C300.698 223.137 300.635 223.17 300.585 223.217C300.535 223.265 300.498 223.326 300.479 223.393C299.998 225.163 299.112 230.596 302.23 240.76Z" fill="black"/>
</g>
<path d="M288.943 266.237C288.943 266.237 292.382 255.344 286.453 248.891C286.407 248.839 286.348 248.802 286.283 248.782C286.218 248.763 286.148 248.763 286.083 248.781C286.017 248.8 285.958 248.836 285.911 248.887C285.864 248.938 285.833 249.001 285.819 249.069C285.484 250.868 285.031 256.364 288.943 266.237Z" fill="#F56600"/>
<path d="M287.067 252.518C287.309 253.152 287.478 253.813 287.57 254.488C287.821 255.708 288.121 257.414 288.406 259.299C288.692 261.183 288.888 262.904 288.992 264.153C289.083 264.827 289.095 265.51 289.027 266.187C288.862 265.532 288.75 264.863 288.692 264.189C288.49 262.797 288.253 261.169 287.995 259.363C287.737 257.557 287.486 255.93 287.298 254.538C287.156 253.874 287.079 253.197 287.067 252.518Z" fill="#263238"/>
<g opacity="0.3">
<path d="M288.943 266.237C288.943 266.237 292.381 255.344 286.453 248.891C286.407 248.839 286.348 248.802 286.283 248.782C286.217 248.763 286.148 248.763 286.082 248.781C286.017 248.8 285.957 248.836 285.911 248.887C285.864 248.938 285.832 249.001 285.818 249.069C285.484 250.868 285.03 256.364 288.943 266.237Z" fill="black"/>
</g>
<path d="M307.698 227.847C307.698 227.847 316.856 221.28 315.935 212.472C315.928 212.402 315.902 212.336 315.861 212.281C315.819 212.226 315.764 212.183 315.7 212.158C315.637 212.133 315.568 212.126 315.501 212.139C315.434 212.151 315.372 212.183 315.321 212.229C313.989 213.457 310.418 217.54 307.698 227.847Z" fill="#F56600"/>
<g opacity="0.3">
<path d="M307.698 227.847C307.698 227.847 316.855 221.28 315.935 212.472C315.927 212.402 315.902 212.336 315.86 212.281C315.819 212.226 315.764 212.183 315.7 212.158C315.637 212.133 315.568 212.126 315.501 212.139C315.434 212.151 315.372 212.183 315.321 212.229C313.989 213.457 310.418 217.54 307.698 227.847Z" fill="black"/>
</g>
<path d="M314.275 215.762C314.093 216.415 313.838 217.045 313.515 217.639C312.992 218.767 312.232 220.309 311.346 221.993C310.46 223.678 309.609 225.17 308.954 226.226C308.631 226.819 308.24 227.371 307.789 227.868C308.034 227.24 308.337 226.638 308.695 226.069C309.351 224.834 310.125 223.393 310.976 221.786L313.25 217.503C313.535 216.89 313.879 216.307 314.275 215.762Z" fill="#263238"/>
<path d="M292.64 255.438C292.64 255.438 303.688 253.675 306.645 245.352C306.669 245.287 306.675 245.216 306.663 245.148C306.65 245.08 306.619 245.017 306.574 244.965C306.529 244.913 306.47 244.876 306.405 244.856C306.34 244.836 306.271 244.835 306.206 244.852C304.483 245.38 299.489 247.415 292.64 255.438Z" fill="#F56600"/>
<g opacity="0.3">
<path d="M292.64 255.438C292.64 255.438 303.687 253.675 306.645 245.352C306.669 245.287 306.675 245.216 306.662 245.148C306.65 245.08 306.619 245.017 306.574 244.965C306.528 244.913 306.47 244.876 306.405 244.856C306.34 244.836 306.271 244.835 306.205 244.852C304.482 245.38 299.489 247.415 292.64 255.438Z" fill="black"/>
</g>
<path d="M303.743 247.557C303.296 248.057 302.795 248.504 302.251 248.892C301.295 249.677 299.949 250.719 298.436 251.832C296.922 252.946 295.507 253.895 294.46 254.552C293.915 254.942 293.325 255.26 292.703 255.502C293.198 255.05 293.732 254.646 294.3 254.295L298.192 251.483L302.077 248.627C302.593 248.211 303.152 247.852 303.743 247.557Z" fill="#263238"/>
<path d="M282.094 276.252L278.872 298.452H298.959L296.357 276.252H282.094Z" fill="#455A64"/>
<path d="M297.167 283.126C297.167 283.248 293.54 283.34 289.069 283.34C284.598 283.34 280.965 283.248 280.965 283.126C283.661 282.915 286.366 282.843 289.069 282.912C291.77 282.843 294.473 282.915 297.167 283.126Z" fill="#263238"/>
<path d="M297.557 284.898C297.557 285.019 293.812 285.112 289.187 285.112C284.563 285.112 280.818 285.019 280.818 284.898C280.818 284.776 284.563 284.684 289.187 284.684C293.812 284.684 297.557 284.776 297.557 284.898Z" fill="#263238"/>
<path d="M219.449 60.883C219.449 60.883 219.261 60.883 218.898 60.883C218.369 60.8508 217.838 60.8508 217.308 60.883C215.26 61.0057 213.247 61.4887 211.359 62.3106C208.366 63.5947 205.761 65.6718 203.813 68.3282C202.611 69.9868 201.718 71.8571 201.176 73.8461C199.955 78.5838 200.615 83.6234 203.01 87.8656C203.663 89.0401 204.46 90.1244 205.382 91.0921C206.311 92.1174 207.394 92.9848 208.59 93.6619C209.817 94.3686 211.207 94.726 212.614 94.6969C214.066 94.6791 215.457 94.1032 216.513 93.0837C217.023 92.5364 217.424 91.8917 217.69 91.1862C217.957 90.4807 218.086 89.7283 218.068 88.972C218.058 87.4007 217.57 85.8717 216.674 84.5963C214.867 81.9908 211.938 80.2419 208.82 79.2997C205.587 78.3704 202.174 78.3212 198.916 79.1569C197.254 79.5996 195.651 80.2518 194.146 81.0985C192.626 81.9764 191.245 83.086 190.052 84.3893C189.766 84.7248 189.438 85.0317 189.18 85.4029L188.392 86.4879C187.913 87.2525 187.484 88.049 187.109 88.8721C186.363 90.5433 185.853 92.3147 185.595 94.133C185.089 97.7655 185.572 101.471 186.99 104.84C188.346 108.133 190.707 110.888 193.72 112.692C195.181 113.547 196.812 114.052 198.491 114.17C200.137 114.264 201.774 113.862 203.199 113.014C204.613 112.214 205.731 110.959 206.379 109.445C206.991 107.952 207.033 106.278 206.498 104.755C205.947 103.285 205.045 101.98 203.875 100.957C202.741 99.9536 201.433 99.1765 200.018 98.6658C197.261 97.7758 194.31 97.7237 191.523 98.5159C188.916 99.2389 186.522 100.604 184.549 102.492C182.752 104.254 181.383 106.422 180.553 108.824C179.1 112.99 179.167 117.553 180.741 121.672C181.969 124.748 183.945 127.451 186.481 129.525C188.079 130.836 189.858 131.897 191.761 132.672C192.416 132.922 192.925 133.108 193.274 133.208L193.79 133.379C193.79 133.379 193.609 133.343 193.26 133.244C192.745 133.102 192.237 132.933 191.74 132.737C189.812 131.995 188.009 130.95 186.397 129.639C183.818 127.567 181.803 124.85 180.546 121.751C178.944 117.592 178.862 112.982 180.315 108.766C181.148 106.329 182.531 104.128 184.354 102.342C186.355 100.416 188.785 99.0195 191.433 98.2732C194.277 97.4609 197.291 97.5105 200.109 98.416C201.565 98.9355 202.911 99.7324 204.078 100.764C205.293 101.82 206.229 103.173 206.798 104.698C207.371 106.289 207.346 108.042 206.728 109.616C206.04 111.19 204.873 112.495 203.401 113.335C201.923 114.216 200.227 114.638 198.519 114.548C196.799 114.426 195.13 113.903 193.637 113.021C190.555 111.191 188.134 108.389 186.739 105.033C185.29 101.602 184.793 97.8277 185.302 94.1259C185.568 92.2708 186.09 90.4636 186.851 88.7579C187.234 87.9173 187.672 87.1041 188.162 86.3237L188.971 85.2173C189.229 84.839 189.564 84.5035 189.857 84.1751C191.078 82.8472 192.489 81.7161 194.041 80.8201C195.582 79.9572 197.222 79.2953 198.923 78.85C202.243 77.9986 205.722 78.0503 209.016 78.9999C212.196 79.9707 215.174 81.7481 217.05 84.4464C217.993 85.775 218.505 87.3728 218.515 89.0149C218.549 90.6309 217.954 92.1946 216.862 93.3621C215.746 94.4341 214.277 95.038 212.747 95.0538C211.282 95.0879 209.836 94.7154 208.562 93.976C207.338 93.2846 206.231 92.3951 205.284 91.3419C204.351 90.3525 203.542 89.247 202.878 88.0512C200.44 83.7302 199.777 78.5952 201.037 73.7747C201.595 71.7627 202.51 69.873 203.736 68.1997C205.72 65.5232 208.37 63.4402 211.408 62.1679C213.312 61.3618 215.34 60.9074 217.399 60.8259C217.933 60.7898 218.469 60.7898 219.003 60.8259L219.449 60.883Z" fill="#263238"/>
<path d="M242.737 132.309H144.948V209.502H242.737V132.309Z" fill="#F56600"/>
<path d="M185.721 181.186H195.604" stroke="#263238" stroke-width="1.23532" stroke-linecap="round" stroke-linejoin="round"/>
<path d="M144.948 132.309L163.012 149.555H259.141L242.737 132.309H144.948Z" fill="#F56600"/>
<path d="M144.948 132.309L242.765 132.131H242.842L242.898 132.181L259.134 149.248L259.302 149.427L259.602 149.741H259.169L163.039 149.662H162.998L144.948 132.309L163.081 149.441H163.005L259.134 149.37L259.009 149.684L258.834 149.505L242.605 132.438L242.73 132.495L144.948 132.309Z" fill="#263238"/>
<path d="M174.325 167.908C173.795 167.928 173.294 168.16 172.929 168.553C172.565 168.947 172.366 169.472 172.375 170.014C172.385 170.557 172.602 171.074 172.981 171.454C173.359 171.834 173.868 172.047 174.398 172.047C174.928 172.047 175.437 171.834 175.815 171.454C176.193 171.074 176.41 170.557 176.42 170.014C176.43 169.472 176.231 168.947 175.866 168.553C175.502 168.16 175.001 167.928 174.471 167.908" fill="#263238"/>
<path d="M197.431 167.908C196.904 167.929 196.405 168.16 196.042 168.553C195.68 168.946 195.483 169.469 195.493 170.009C195.503 170.549 195.719 171.064 196.096 171.442C196.473 171.821 196.98 172.033 197.508 172.033C198.036 172.033 198.543 171.821 198.919 171.442C199.296 171.064 199.513 170.549 199.523 170.009C199.533 169.469 199.336 168.946 198.973 168.553C198.611 168.16 198.112 167.929 197.585 167.908" fill="#263238"/>
<path opacity="0.5" d="M145.171 133.158L162.468 155.601H242.737V149.555H163.012L145.171 133.158Z" fill="black"/>
<path d="M223.453 209.331C223.355 209.331 223.272 195.903 223.272 179.35C223.272 162.796 223.355 149.369 223.453 149.369C223.551 149.369 223.641 162.789 223.641 179.35C223.641 195.911 223.558 209.331 223.453 209.331Z" fill="#263238"/>
<path d="M238.811 191.828H230.191V201.8H238.811V191.828Z" fill="#F5F5F5"/>
<path d="M144.948 132.309L124.875 149.555H144.948V132.309Z" fill="#F56600"/>
<g opacity="0.4">
<path d="M144.948 132.309L124.875 149.555H144.948V132.309Z" fill="black"/>
</g>
<path d="M245.625 209.502H133.189V298.259H245.625V209.502Z" fill="#F56600"/>
<path opacity="0.3" d="M245.625 209.502H133.189V298.259H245.625V209.502Z" fill="black"/>
<path d="M217.455 297.632C217.357 297.632 217.273 277.852 217.273 253.453C217.273 229.055 217.357 209.268 217.455 209.268C217.552 209.268 217.636 229.048 217.636 253.453C217.636 277.859 217.552 297.632 217.455 297.632Z" fill="#263238"/>
<path d="M236.091 278.059H227.47V288.031H236.091V278.059Z" fill="#F5F5F5"/>
<path d="M180.26 209.738H167.49V228.676H180.26V209.738Z" fill="#263238"/>
<path d="M180.26 279.057H167.49V297.994H180.26V279.057Z" fill="#263238"/>
<path d="M244.649 209.502H244.356H243.512L240.269 209.537L228.321 209.594L188.922 209.687L149.509 209.637L137.569 209.58L134.326 209.544L137.569 209.509L149.509 209.452L188.922 209.395L228.321 209.452L240.269 209.509L243.512 209.544H244.356L244.649 209.502Z" fill="#263238"/>
</svg>
