<svg width="55" height="64" viewBox="0 0 55 64" fill="none" xmlns="http://www.w3.org/2000/svg">
<path d="M0.13892 62.2452L3.99781 53.5344C4.13416 53.2296 4.32196 52.9929 4.55863 52.8244C4.79531 52.6572 5.08087 52.5723 5.41788 52.5723H5.56195C5.89767 52.5723 6.18065 52.6572 6.4109 52.8244C6.64372 52.9929 6.82895 53.2296 6.96658 53.5344L10.8255 62.2452C10.9078 62.4755 10.949 62.6388 10.949 62.734C10.949 63.0607 10.837 63.336 10.6145 63.5624C10.3946 63.7888 10.1219 63.902 9.79643 63.902C9.51088 63.902 9.2742 63.8261 9.0864 63.6756C8.89731 63.5212 8.74424 63.3193 8.62848 63.0684L7.88757 61.3294H3.01508L2.2433 63.1456C2.13654 63.39 1.98604 63.5765 1.79052 63.7065C1.59501 63.8364 1.37119 63.902 1.12165 63.902C0.805222 63.902 0.540245 63.7926 0.324147 63.5727C0.108049 63.3501 0 63.0813 0 62.7649C0 62.6826 0.0115766 62.5977 0.0360163 62.5076C0.0630284 62.415 0.0977585 62.3275 0.13892 62.2452ZM3.91549 59.1787H6.98202L5.44875 55.5256L3.91549 59.1787Z" fill="#EF8121" fill-opacity="0.4"/>
<path d="M12.3579 62.7031V53.8997C12.3579 53.564 12.4762 53.2771 12.7129 53.0404C12.9496 52.8012 13.2377 52.6803 13.5773 52.6803H13.8294C14.124 52.6803 14.3658 52.7472 14.5549 52.8809C14.7427 53.0121 14.9228 53.1832 15.0951 53.3955L19.7876 59.5594V53.8534C19.7876 53.5138 19.902 53.2295 20.1323 52.9993C20.3651 52.7665 20.6494 52.6494 20.9864 52.6494C21.326 52.6494 21.6102 52.7665 21.8405 52.9993C22.0733 53.2295 22.1904 53.5138 22.1904 53.8534V62.6568C22.1904 62.9938 22.072 63.2794 21.8353 63.516C21.5987 63.7527 21.3105 63.8711 20.971 63.8711H20.8938C20.5979 63.8711 20.3548 63.8068 20.1632 63.6755C19.9741 63.5418 19.7953 63.3707 19.6281 63.161L14.7607 56.7759V62.7031C14.7607 63.0401 14.6437 63.3244 14.4108 63.5572C14.1806 63.7875 13.8976 63.9019 13.5619 63.9019C13.2223 63.9019 12.9355 63.7875 12.7026 63.5572C12.4724 63.3244 12.3579 63.0401 12.3579 62.7031Z" fill="#EF8121" fill-opacity="0.4"/>
<path d="M29.6487 52.5566C30.4925 52.5566 31.209 52.6441 31.7994 52.819C32.3885 52.9914 32.9313 53.2615 33.4253 53.632C33.5411 53.7143 33.6542 53.8378 33.7649 54.0024C33.8781 54.1645 33.9347 54.3665 33.9347 54.6096C33.9347 54.9466 33.8176 55.2309 33.5848 55.4637C33.3545 55.6978 33.0703 55.8135 32.7307 55.8135C32.5519 55.8135 32.404 55.7878 32.2882 55.7364C32.1711 55.6823 32.0721 55.6219 31.9898 55.5563C31.6528 55.317 31.3003 55.1318 30.9299 55.0006C30.562 54.8668 30.1092 54.7999 29.5715 54.7999C29.1291 54.7999 28.7149 54.8926 28.3316 55.0778C27.947 55.2604 27.6087 55.5074 27.318 55.8187C27.0298 56.1313 26.8034 56.4953 26.6388 56.9095C26.4741 57.3249 26.3918 57.7713 26.3918 58.2472V58.2781C26.3918 58.7823 26.4741 59.2492 26.6388 59.6776C26.8034 60.1033 27.035 60.4738 27.3334 60.7889C27.6344 61.1054 27.9894 61.3498 28.3984 61.5247C28.8101 61.6996 29.259 61.7871 29.7465 61.7871C30.6623 61.7871 31.4251 61.5659 32.0361 61.1234V59.5438H30.3948C30.0989 59.5438 29.8494 59.4448 29.6436 59.2454C29.4378 59.0434 29.3349 58.7952 29.3349 58.4993C29.3349 58.2048 29.4378 57.9539 29.6436 57.7481C29.8494 57.5423 30.0989 57.4394 30.3948 57.4394H33.1732C33.5128 57.4394 33.8009 57.5578 34.0376 57.7944C34.2742 58.0311 34.3926 58.3192 34.3926 58.6588V61.3446C34.3926 62.0276 34.107 62.5434 33.5385 62.8933C33.0857 63.1686 32.5352 63.422 31.8869 63.6548C31.2386 63.8838 30.4977 63.9995 29.6642 63.9995C28.7998 63.9995 28.0126 63.8568 27.3025 63.5725C26.5925 63.2882 25.9815 62.8933 25.4708 62.3891C24.9589 61.8823 24.5614 61.2816 24.2771 60.5883C23.9916 59.8924 23.8501 59.1322 23.8501 58.309V58.2781C23.8501 57.4857 23.9942 56.7448 24.2823 56.0554C24.573 55.3659 24.9769 54.7614 25.4914 54.2391C26.0085 53.7182 26.6234 53.3078 27.3334 53.0094C28.046 52.7084 28.8178 52.5566 29.6487 52.5566Z" fill="#EF8121" fill-opacity="0.4"/>
<path d="M36.2249 53.8688C36.2249 53.5292 36.3432 53.2411 36.5799 53.0044C36.8165 52.7678 37.1047 52.6494 37.4443 52.6494C37.78 52.6494 38.0668 52.7678 38.3035 53.0044C38.5402 53.2411 38.6585 53.5292 38.6585 53.8688V61.5969H43.1657C43.4706 61.5969 43.7317 61.7049 43.9478 61.921C44.1639 62.1371 44.2719 62.3983 44.2719 62.7031C44.2719 63.0092 44.1639 63.2691 43.9478 63.4852C43.7317 63.7013 43.4706 63.8093 43.1657 63.8093H37.4443C37.1047 63.8093 36.8165 63.691 36.5799 63.4543C36.3432 63.2176 36.2249 62.9295 36.2249 62.5899V53.8688Z" fill="#EF8121" fill-opacity="0.4"/>
<path d="M45.5032 62.5898V53.9613C45.5032 53.6256 45.6215 53.3388 45.8582 53.1021C46.0949 52.8654 46.383 52.7471 46.7226 52.7471H52.8556C53.1605 52.7471 53.4178 52.8525 53.6274 53.0609C53.8358 53.2706 53.9413 53.5291 53.9413 53.8379C53.9413 54.144 53.8358 54.3987 53.6274 54.6045C53.4178 54.8077 53.1605 54.908 52.8556 54.908H47.9214V57.1565H52.1405C52.4453 57.1565 52.7026 57.2633 52.9122 57.4755C53.1245 57.6852 53.2312 57.9424 53.2312 58.2473C53.2312 58.5534 53.1245 58.8081 52.9122 59.0139C52.7026 59.2197 52.4453 59.3226 52.1405 59.3226H47.9214V61.6431H52.9328C53.2377 61.6431 53.4949 61.7499 53.7046 61.9621C53.9168 62.1718 54.0236 62.429 54.0236 62.7339C54.0236 63.04 53.9168 63.2947 53.7046 63.5005C53.4949 63.7063 53.2377 63.8092 52.9328 63.8092H46.7226C46.383 63.8092 46.0949 63.6909 45.8582 63.4542C45.6215 63.2175 45.5032 62.9294 45.5032 62.5898Z" fill="#EF8121" fill-opacity="0.4"/>
<path d="M19.5718 11.2025C20.2239 11.2025 20.7539 10.6738 20.7539 10.0217V7.73205C20.7539 4.77228 23.1644 2.36176 26.1332 2.36176C29.1032 2.36176 31.5137 4.77228 31.5137 7.73205V10.0217C31.5137 10.6738 32.0437 11.2025 32.6958 11.2025C33.3493 11.2025 33.8779 10.6738 33.8779 10.0217V8.05363C33.8779 3.92204 30.7767 0.290827 26.6438 0.0168455C22.1534 -0.27643 18.3896 3.29819 18.3896 7.73205V10.0217C18.3896 10.6738 18.9183 11.2025 19.5718 11.2025Z" fill="#0A0A0A"/>
<mask id="mask0_161_1010" style="mask-type:luminance" maskUnits="userSpaceOnUse" x="9" y="12" width="36" height="35">
<path d="M9.48462 12.9707H44.7111V46.8878H9.48462V12.9707Z" fill="white"/>
</mask>
<g mask="url(#mask0_161_1010)">
<path d="M44.432 41.9359L41.8311 16.6408C41.6227 14.6265 39.93 13.1035 37.9066 13.1035H14.361C12.3376 13.1035 10.6449 14.6355 10.4365 16.6408L9.78432 22.9385C9.34955 27.1653 13.3679 30.4647 17.4249 29.226L19.6283 28.5545C22.1341 27.7892 24.933 29.0562 25.9158 31.8359C26.2566 32.8006 26.209 33.8605 25.9068 34.8432L24.933 38.0204C23.5901 42.4079 26.8715 46.8431 31.4571 46.8431H40.0059C42.6441 46.8341 44.706 44.5548 44.432 41.9359Z" fill="#F56600"/>
</g>
<path d="M20.4607 31.2602L7.72255 35.1461C5.86899 35.7133 5.73651 38.2859 7.52446 39.0423L10.5601 40.3195C12.1667 41 13.453 42.276 14.1334 43.8929L15.4107 46.9285C16.1671 48.7165 18.7397 48.584 19.3069 46.7304L23.1928 33.9923C23.7138 32.3188 22.1432 30.7495 20.4607 31.2602Z" fill="#0A0A0A"/>
<path d="M0.13892 62.2452L3.99781 53.5344C4.13416 53.2296 4.32196 52.9929 4.55863 52.8244C4.79531 52.6572 5.08087 52.5723 5.41788 52.5723H5.56195C5.89767 52.5723 6.18065 52.6572 6.4109 52.8244C6.64372 52.9929 6.82895 53.2296 6.96658 53.5344L10.8255 62.2452C10.9078 62.4755 10.949 62.6388 10.949 62.734C10.949 63.0607 10.837 63.336 10.6145 63.5624C10.3946 63.7888 10.1219 63.902 9.79643 63.902C9.51088 63.902 9.2742 63.8261 9.0864 63.6756C8.89731 63.5212 8.74424 63.3193 8.62848 63.0684L7.88757 61.3294H3.01508L2.2433 63.1456C2.13654 63.39 1.98604 63.5765 1.79052 63.7065C1.59501 63.8364 1.37119 63.902 1.12165 63.902C0.805222 63.902 0.540245 63.7926 0.324147 63.5727C0.108049 63.3501 0 63.0813 0 62.7649C0 62.6826 0.0115766 62.5977 0.0360163 62.5076C0.0630284 62.415 0.0977585 62.3275 0.13892 62.2452ZM3.91549 59.1787H6.98202L5.44875 55.5256L3.91549 59.1787Z" fill="#0A0A0A"/>
<path d="M12.3579 62.7031V53.8997C12.3579 53.564 12.4762 53.2771 12.7129 53.0404C12.9496 52.8012 13.2377 52.6803 13.5773 52.6803H13.8294C14.124 52.6803 14.3658 52.7472 14.5549 52.8809C14.7427 53.0121 14.9228 53.1832 15.0951 53.3955L19.7876 59.5594V53.8534C19.7876 53.5138 19.902 53.2295 20.1323 52.9993C20.3651 52.7665 20.6494 52.6494 20.9864 52.6494C21.326 52.6494 21.6102 52.7665 21.8405 52.9993C22.0733 53.2295 22.1904 53.5138 22.1904 53.8534V62.6568C22.1904 62.9938 22.072 63.2794 21.8353 63.516C21.5987 63.7527 21.3105 63.8711 20.971 63.8711H20.8938C20.5979 63.8711 20.3548 63.8068 20.1632 63.6755C19.9741 63.5418 19.7953 63.3707 19.6281 63.161L14.7607 56.7759V62.7031C14.7607 63.0401 14.6437 63.3244 14.4108 63.5572C14.1806 63.7875 13.8976 63.9019 13.5619 63.9019C13.2223 63.9019 12.9355 63.7875 12.7026 63.5572C12.4724 63.3244 12.3579 63.0401 12.3579 62.7031Z" fill="#0A0A0A"/>
<path d="M29.6487 52.5566C30.4925 52.5566 31.209 52.6441 31.7994 52.819C32.3885 52.9914 32.9313 53.2615 33.4253 53.632C33.5411 53.7143 33.6542 53.8378 33.7649 54.0024C33.8781 54.1645 33.9347 54.3665 33.9347 54.6096C33.9347 54.9466 33.8176 55.2309 33.5848 55.4637C33.3545 55.6978 33.0703 55.8135 32.7307 55.8135C32.5519 55.8135 32.404 55.7878 32.2882 55.7364C32.1711 55.6823 32.0721 55.6219 31.9898 55.5563C31.6528 55.317 31.3003 55.1318 30.9299 55.0006C30.562 54.8668 30.1092 54.7999 29.5715 54.7999C29.1291 54.7999 28.7149 54.8926 28.3316 55.0778C27.947 55.2604 27.6087 55.5074 27.318 55.8187C27.0298 56.1313 26.8034 56.4953 26.6388 56.9095C26.4741 57.3249 26.3918 57.7713 26.3918 58.2472V58.2781C26.3918 58.7823 26.4741 59.2492 26.6388 59.6776C26.8034 60.1033 27.035 60.4738 27.3334 60.7889C27.6344 61.1054 27.9894 61.3498 28.3984 61.5247C28.8101 61.6996 29.259 61.7871 29.7465 61.7871C30.6623 61.7871 31.4251 61.5659 32.0361 61.1234V59.5438H30.3948C30.0989 59.5438 29.8494 59.4448 29.6436 59.2454C29.4378 59.0434 29.3349 58.7952 29.3349 58.4993C29.3349 58.2048 29.4378 57.9539 29.6436 57.7481C29.8494 57.5423 30.0989 57.4394 30.3948 57.4394H33.1732C33.5128 57.4394 33.8009 57.5578 34.0376 57.7944C34.2742 58.0311 34.3926 58.3192 34.3926 58.6588V61.3446C34.3926 62.0276 34.107 62.5434 33.5385 62.8933C33.0857 63.1686 32.5352 63.422 31.8869 63.6548C31.2386 63.8838 30.4977 63.9995 29.6642 63.9995C28.7998 63.9995 28.0126 63.8568 27.3025 63.5725C26.5925 63.2882 25.9815 62.8933 25.4708 62.3891C24.9589 61.8823 24.5614 61.2816 24.2771 60.5883C23.9916 59.8924 23.8501 59.1322 23.8501 58.309V58.2781C23.8501 57.4857 23.9942 56.7448 24.2823 56.0554C24.573 55.3659 24.9769 54.7614 25.4914 54.2391C26.0085 53.7182 26.6234 53.3078 27.3334 53.0094C28.046 52.7084 28.8178 52.5566 29.6487 52.5566Z" fill="#0A0A0A"/>
<path d="M36.2249 53.8688C36.2249 53.5292 36.3432 53.2411 36.5799 53.0044C36.8165 52.7678 37.1047 52.6494 37.4443 52.6494C37.78 52.6494 38.0668 52.7678 38.3035 53.0044C38.5402 53.2411 38.6585 53.5292 38.6585 53.8688V61.5969H43.1657C43.4706 61.5969 43.7317 61.7049 43.9478 61.921C44.1639 62.1371 44.2719 62.3983 44.2719 62.7031C44.2719 63.0092 44.1639 63.2691 43.9478 63.4852C43.7317 63.7013 43.4706 63.8093 43.1657 63.8093H37.4443C37.1047 63.8093 36.8165 63.691 36.5799 63.4543C36.3432 63.2176 36.2249 62.9295 36.2249 62.5899V53.8688Z" fill="#0A0A0A"/>
<path d="M45.5032 62.5898V53.9613C45.5032 53.6256 45.6215 53.3388 45.8582 53.1021C46.0949 52.8654 46.383 52.7471 46.7226 52.7471H52.8556C53.1605 52.7471 53.4178 52.8525 53.6274 53.0609C53.8358 53.2706 53.9413 53.5291 53.9413 53.8379C53.9413 54.144 53.8358 54.3987 53.6274 54.6045C53.4178 54.8077 53.1605 54.908 52.8556 54.908H47.9214V57.1565H52.1405C52.4453 57.1565 52.7026 57.2633 52.9122 57.4755C53.1245 57.6852 53.2312 57.9424 53.2312 58.2473C53.2312 58.5534 53.1245 58.8081 52.9122 59.0139C52.7026 59.2197 52.4453 59.3226 52.1405 59.3226H47.9214V61.6431H52.9328C53.2377 61.6431 53.4949 61.7499 53.7046 61.9621C53.9168 62.1718 54.0236 62.429 54.0236 62.7339C54.0236 63.04 53.9168 63.2947 53.7046 63.5005C53.4949 63.7063 53.2377 63.8092 52.9328 63.8092H46.7226C46.383 63.8092 46.0949 63.6909 45.8582 63.4542C45.6215 63.2175 45.5032 62.9294 45.5032 62.5898Z" fill="#0A0A0A"/>
</svg>
